# xmcd
# Copyright (C) 1995-1998 Ti Kan
#
# Track frame offsets:
#       150
#       16202
#       31126
#       47208
#       63490
#       78181
#       99139
#       113046
#       129094
#
# Disc length: 2013 seconds
#
# Revision: 0
# Processed by: cddbd v1.5.2PL0 Copyright (c) Steve Scherf et al.
# Submitted via: CD-Import v1.0
#
DISCID=5e07db09
DTITLE=Franco Battiato - Il Vuoto
DYEAR=2007
DGENRE=
TTITLE0=Il Vuoto
TTITLE1=Giorni Della Monotonia
TTITLE2=Aspettando L'estate
TTITLE3=Niente È Come Sembra
TTITLE4=Tiepido Aprile
TTITLE5=The Game Is Over
TTITLE6=Era L'inizio Della Primavera
TTITLE7=Io Chi Sono?
TTITLE8=Stati Di Gioia
EXTD=
EXTT0=
EXTT1=
EXTT2=
EXTT3=
EXTT4=
EXTT5=
EXTT6=
EXTT7=
EXTT8=
PLAYORDER=
